PathFileType	4	(X/Y/Z)	/Users/visionmauri/Downloads/Videos/OAW03-top_Sports2D/OAW03-top_Sports2D_px_person00.trc
DataRate	CameraRate	NumFrames	NumMarkers	Units	OrigDataRate	OrigDataStartFrame	OrigNumFrames
30.0	30.0	8	22	m	30.0	268	2146
Frame#	Time	Hip			RHip			RKnee			RAnkle			RBigToe			RSmallToe			RHeel			LHip			LKnee			LAnkle			LBigToe			LSmallToe			LHeel			Neck			Head			Nose			RShoulder			RElbow			RWrist			LShoulder			LElbow			LWrist			
		X1	Y1	Z1	X2	Y2	Z2	X3	Y3	Z3	X4	Y4	Z4	X5	Y5	Z5	X6	Y6	Z6	X7	Y7	Z7	X8	Y8	Z8	X9	Y9	Z9	X10	Y10	Z10	X11	Y11	Z11	X12	Y12	Z12	X13	Y13	Z13	X14	Y14	Z14	X15	Y15	Z15	X16	Y16	Z16	X17	Y17	Z17	X18	Y18	Z18	X19	Y19	Z19	X20	Y20	Z20	X21	Y21	Z21	X22	Y22	Z22
268	8.937498057498058	528.6078889883757	652.1438066874662	0.0	512.2885191743169	654.360584995034	0.0	510.28392819337694	717.5482685402004	0.0	516.5387492040661	777.3223881217542	0.0	522.0421012405386	800.4567564164689	0.0	512.4126441961334	799.6553690314277	0.0	518.2609983549971	784.8488808241823	0.0	545.0485802220538	654.1571050860671	0.0	544.4649537712149	715.5307392016138	0.0	541.1490941133427	760.388919524632	0.0	538.1904531926565	788.585437340858	0.0	547.82478878459	786.5077287689434	0.0	538.129093057785	764.9021921534153	0.0	526.7996632154915	555.474018791897	0.0	528.3306397929302	506.47193543833066	0.0	528.3623407276916	540.178074542565	0.0	496.65964594372275	561.2909552744622	0.0	484.73265754405935	615.1554214232989	0.0	480.5364627206931	661.5758799318975	0.0	559.8680089568179	559.2005664235818	0.0	572.8806967592769	610.896372035877	0.0	574.5746813885683	654.5762239162309	0.0
269	8.97084693084693	528.9317951438895	652.179796300128	0.0	512.3121742301888	654.7531100226336	0.0	510.44374661984205	718.3816765715254	0.0	517.0832427358532	776.984466897641	0.0	522.0530351276484	801.0514132493788	0.0	512.2719803553166	799.8462525628781	0.0	518.4769887666616	784.3746328368434	0.0	545.764123154625	654.435347918971	0.0	543.7540014295602	716.6632861183463	0.0	541.2003593108877	767.9087662955268	0.0	538.3572199223639	794.5769302540189	0.0	548.202786602355	792.6110953730297	0.0	538.0838795042938	774.6376732442569	0.0	527.303023920361	553.3437552005461	0.0	529.03261175073	504.8658258280009	0.0	529.0319034846486	537.822570888189	0.0	496.44070978796145	560.7043920819735	0.0	484.5066344658724	614.4663906447389	0.0	480.3711211301838	661.2278089213531	0.0	560.2951904070661	558.983006854	0.0	573.5508467616443	611.1644031541271	0.0	576.6493720556584	654.5623177685682	0.0
270	9.004195804195804	529.418281451086	653.224984742661	0.0	512.5457321335376	656.1900042976113	0.0	510.72758374607963	720.1641147194839	0.0	517.4404227984801	776.9016426942015	0.0	521.8794032247067	801.6470801055884	0.0	512.1304372455826	799.8505982516648	0.0	518.731966181091	784.1746495291596	0.0	546.5659944187553	655.673660167911	0.0	543.69790974649	718.870464430166	0.0	541.1942827769043	775.5583329592174	0.0	538.5542622318386	800.1133681570174	0.0	548.3263880679468	798.4699832711436	0.0	537.9788927453845	783.5096162918314	0.0	527.8385815326141	551.2134723333021	0.0	529.2984148218084	504.1215491286695	0.0	529.2485611234515	536.2116128647011	0.0	496.20426099876244	560.7250505936565	0.0	484.22422797848105	614.1414541262469	0.0	480.61269242925613	661.1011098352052	0.0	560.8334791788067	559.6100832263119	0.0	574.3244874029643	611.7108629056833	0.0	578.9630754377412	654.7508349189047	0.0
271	9.037544677544677	530.1118870170333	655.2457608472131	0.0	513.0066008292894	658.0646007929438	0.0	511.09433964060406	722.371958937184	0.0	517.5619526437043	777.279068561366	0.0	521.3890649095604	801.9035377518145	0.0	511.7551016353705	799.7363203345295	0.0	519.2331034145851	784.2155813285086	0.0	547.5495276430491	657.4932544895285	0.0	544.4307918402101	721.9810312479283	0.0	541.5274725141924	782.0192161594864	0.0	539.4870107659024	805.1661277877362	0.0	549.1218978484534	803.7905906864962	0.0	538.0503740147542	790.4384473613258	0.0	528.430301680473	551.0469020666997	0.0	529.3921946248282	504.3716233837616	0.0	529.4052437599022	536.0447360123565	0.0	495.98970886910314	561.6456871665949	0.0	484.0163296307705	614.7469669584893	0.0	481.24824904092543	661.157458317435	0.0	561.5358713401181	560.9419206298751	0.0	575.0527634864683	612.2749764379251	0.0	581.6378751389302	655.4831953332715	0.0
272	9.070893550893551	530.918867045299	656.9378864545421	0.0	513.7650080381301	659.6977214587006	0.0	511.326013734757	724.3429594120124	0.0	517.5632638701506	778.073829008759	0.0	520.8523315758624	801.6919999831191	0.0	511.2947933732067	799.5739189089406	0.0	519.6416257857929	784.7932994981949	0.0	548.7150182986363	659.0263375123767	0.0	545.7445879830974	724.8367496800945	0.0	542.2314727812429	786.6820026120135	0.0	540.6272539444882	808.9294305819266	0.0	550.1886196709054	807.7043972604638	0.0	538.6049985452158	795.1544653464566	0.0	529.0987747571406	552.3605662824066	0.0	529.9622064037751	504.8797908873156	0.0	530.257476625463	536.2658239583119	0.0	496.1808764260462	563.0998199777551	0.0	483.9556425273101	616.0117517611626	0.0	481.96728545856604	661.3581137733994	0.0	562.2824646298322	562.3328396742311	0.0	575.6940070972511	612.7663241081742	0.0	584.371107606128	656.5807923266968	0.0
273	9.104242424242424	531.8023311844664	657.7218159400743	0.0	514.8210108168427	660.9281595560357	0.0	511.34607950370247	725.6883446790923	0.0	517.6457515607339	778.8435153976492	0.0	520.5469979317087	801.3044021923826	0.0	511.0796731222477	799.4048397873518	0.0	519.7815755515243	785.9806985529721	0.0	549.8431558461353	660.0785947071279	0.0	547.0822978175061	726.713807148315	0.0	543.0311012376269	789.5200390401471	0.0	541.2834157753836	810.9359031896516	0.0	550.7415867779616	809.865474753454	0.0	539.5311252029195	798.1406308347265	0.0	529.8343897855831	553.5736411097154	0.0	531.1409986884613	505.29185044805774	0.0	531.8203512527729	536.4578127927182	0.0	496.97525372465697	564.5277151151507	0.0	484.0483915724751	617.3009668696614	0.0	482.5930664333921	661.7387384652936	0.0	563.0111025692729	563.4497650534606	0.0	576.4551149218383	613.4389563393835	0.0	586.9893306823968	657.6593356695649	0.0
274	9.137591297591298	532.612920960914	658.6933700605907	0.0	515.6701851363517	662.1799467803961	0.0	511.33842866300967	726.6301133257031	0.0	517.8916105701411	779.1109095148283	0.0	520.4724312779226	801.1809800430516	0.0	511.1094581628663	799.4150468583183	0.0	519.8585054942365	786.8725134372082	0.0	550.5933897348253	661.2137414191744	0.0	547.9311979927876	728.1050100276792	0.0	543.6084306643801	791.5542602332857	0.0	541.6236741363912	812.3328172569471	0.0	550.9219500628786	811.4209030426862	0.0	540.3676112388994	800.6695124399627	0.0	530.6829566451565	555.0675014377546	0.0	532.3811110129644	506.00379370453504	0.0	533.2376520064183	538.0523594596933	0.0	498.01095050487254	565.9334379107777	0.0	484.37924523058166	618.5239955566929	0.0	483.2112169967767	662.2803263874493	0.0	564.021688037373	564.8109614952564	0.0	577.6402449965183	614.6340425055438	0.0	589.6916571613424	658.9333070733118	0.0
275	9.17094017094017	533.0732544457592	660.7912644864808	0.0	515.8410851153337	663.8218992043542	0.0	511.3100632155548	727.6273865359568	0.0	518.2395624943354	778.7337882181735	0.0	520.4568502421923	801.4136886945851	0.0	511.13138967192674	799.6220897621766	0.0	520.1294945665527	786.4988175938388	0.0	550.8615125277538	662.8322370790688	0.0	548.1528438178375	729.6781428446474	0.0	543.811855220536	794.0733791033917	0.0	541.8311943321448	814.8437709480286	0.0	551.0732926810118	813.9309630818176	0.0	540.8419287491448	803.5267430419605	0.0	531.7776095944702	558.0962365407238	0.0	533.4259240144647	507.4062726699192	0.0	534.1715106387134	541.9101944727914	0.0	498.88376380892026	567.6073792432453	0.0	484.9934896603004	620.002622403888	0.0	483.8669174838034	662.9428552555294	0.0	565.6276220559569	566.8625383603179	0.0	579.3701760267421	616.5690257313962	0.0	592.5736951749966	661.0379803721473	0.0
